<svg aria-hidden="true" style="position: absolute; width: 0; height: 0; overflow: hidden;" version="1.1" xmlns="http://www.w3.org/2000/svg" xmlns:xlink="http://www.w3.org/1999/xlink">
<defs>
<symbol id="icon-amazon" viewBox="0 0 32 32">
<path d="M9.017 13.381c0 0.395 0.043 0.713 0.117 0.947 0.085 0.235 0.192 0.491 0.341 0.768 0.053 0.084 0.075 0.169 0.075 0.244 0 0.107-0.064 0.213-0.203 0.32l-0.671 0.447c-0.077 0.056-0.173 0.091-0.276 0.096l-0.001 0c-0.107 0-0.213-0.053-0.319-0.149-0.138-0.148-0.264-0.312-0.375-0.486l-0.008-0.014c-0.098-0.162-0.208-0.368-0.309-0.579l-0.021-0.049c-0.829 0.979-1.873 1.468-3.129 1.468-0.893 0-1.607-0.255-2.128-0.765-0.521-0.512-0.787-1.192-0.787-2.044 0-0.904 0.319-1.64 0.968-2.192 0.649-0.553 1.511-0.831 2.607-0.831 0.363 0 0.735 0.032 1.128 0.085 0.395 0.053 0.8 0.139 1.224 0.235v-0.777c0-0.809-0.169-1.373-0.5-1.703-0.34-0.331-0.915-0.489-1.733-0.489-0.373 0-0.757 0.041-1.151 0.137s-0.777 0.213-1.149 0.363c-0.101 0.047-0.224 0.094-0.352 0.133l-0.022 0.006c-0.050 0.017-0.108 0.028-0.168 0.031l-0.002 0c-0.149 0-0.224-0.107-0.224-0.329v-0.521c0-0.171 0.021-0.299 0.075-0.373 0.080-0.095 0.18-0.171 0.294-0.221l0.005-0.002c0.372-0.192 0.819-0.352 1.34-0.48 0.48-0.128 1.032-0.202 1.601-0.202 0.021 0 0.043 0 0.064 0l-0.003-0c1.267 0 2.192 0.288 2.788 0.863 0.585 0.573 0.883 1.447 0.883 2.617zM4.697 15c0.351 0 0.712-0.064 1.096-0.192 0.383-0.128 0.724-0.361 1.011-0.68 0.171-0.203 0.299-0.427 0.363-0.683 0.063-0.255 0.107-0.564 0.107-0.925v-0.447c-0.264-0.069-0.597-0.132-0.935-0.177l-0.045-0.005c-0.3-0.040-0.647-0.063-0.999-0.064h-0.001c-0.713 0-1.235 0.139-1.587 0.427-0.351 0.287-0.52 0.691-0.52 1.223 0 0.5 0.127 0.873 0.393 1.128 0.255 0.267 0.627 0.395 1.117 0.395zM13.244 16.149c-0.192 0-0.32-0.032-0.405-0.107-0.085-0.064-0.16-0.213-0.224-0.415l-2.5-8.228c-0.045-0.124-0.079-0.269-0.095-0.418l-0.001-0.008c0-0.171 0.085-0.267 0.255-0.267h1.044c0.201 0 0.34 0.033 0.413 0.107 0.087 0.064 0.151 0.213 0.213 0.416l1.789 7.045 1.66-7.045c0.053-0.213 0.117-0.352 0.201-0.416 0.109-0.068 0.241-0.108 0.383-0.108 0.015 0 0.031 0 0.046 0.001l-0.002-0h0.851c0.203 0 0.341 0.033 0.427 0.107 0.084 0.064 0.16 0.213 0.201 0.416l1.681 7.131 1.841-7.131c0.064-0.213 0.139-0.352 0.213-0.416 0.105-0.068 0.234-0.108 0.372-0.108 0.015 0 0.030 0 0.045 0.001l-0.002-0h0.991c0.169 0 0.267 0.087 0.267 0.267 0 0.053-0.012 0.107-0.023 0.171-0.019 0.102-0.045 0.191-0.078 0.277l0.004-0.010-2.564 8.227c-0.064 0.213-0.139 0.351-0.224 0.415-0.104 0.067-0.231 0.108-0.367 0.108-0.013 0-0.026-0-0.039-0.001l0.002 0h-0.916c-0.201 0-0.34-0.032-0.427-0.107-0.084-0.075-0.159-0.213-0.2-0.427l-1.651-6.864-1.64 6.853c-0.053 0.213-0.116 0.352-0.2 0.427-0.087 0.075-0.236 0.107-0.427 0.107zM26.919 16.436c-0.553 0-1.107-0.064-1.639-0.191-0.532-0.128-0.947-0.267-1.224-0.427-0.171-0.095-0.287-0.201-0.329-0.297-0.040-0.088-0.063-0.19-0.064-0.298v-0.543c0-0.223 0.085-0.329 0.244-0.329 0.064 0 0.128 0.011 0.192 0.032s0.16 0.064 0.267 0.107c0.361 0.16 0.755 0.287 1.171 0.372 0.425 0.085 0.84 0.128 1.267 0.128 0.669 0 1.192-0.117 1.553-0.352 0.334-0.204 0.554-0.567 0.554-0.981 0-0.010-0-0.021-0-0.031l0 0.002c0-0.009 0-0.019 0-0.030 0-0.278-0.109-0.53-0.287-0.716l0 0c-0.192-0.201-0.555-0.383-1.076-0.553l-1.543-0.48c-0.777-0.244-1.352-0.605-1.703-1.084-0.33-0.422-0.53-0.959-0.533-1.543v-0.001c0-0.447 0.097-0.84 0.288-1.181 0.192-0.34 0.447-0.639 0.767-0.872 0.32-0.245 0.68-0.427 1.107-0.553 0.427-0.128 0.873-0.181 1.341-0.181 0.233 0 0.479 0.011 0.713 0.043 0.244 0.032 0.467 0.075 0.691 0.117 0.213 0.053 0.416 0.107 0.607 0.169 0.192 0.064 0.341 0.128 0.448 0.192 0.128 0.065 0.235 0.155 0.318 0.264l0.002 0.002c0.060 0.089 0.096 0.199 0.096 0.317 0 0.012-0 0.024-0.001 0.035l0-0.002v0.5c0 0.224-0.085 0.341-0.245 0.341-0.151-0.018-0.287-0.063-0.41-0.131l0.006 0.003c-0.579-0.262-1.255-0.415-1.968-0.415-0.026 0-0.053 0-0.079 0.001l0.004-0c-0.607 0-1.087 0.095-1.416 0.297-0.331 0.203-0.5 0.511-0.5 0.947 0 0.299 0.107 0.555 0.32 0.756 0.212 0.203 0.605 0.405 1.169 0.587l1.512 0.477c0.765 0.245 1.32 0.587 1.649 1.023s0.489 0.936 0.489 1.489c0 0.457-0.096 0.873-0.276 1.235-0.192 0.363-0.448 0.681-0.777 0.937-0.331 0.267-0.724 0.457-1.181 0.596-0.48 0.148-0.979 0.223-1.523 0.223zM28.931 21.609c-3.501 2.587-8.589 3.959-12.963 3.959-6.131 0-11.653-2.267-15.827-6.035-0.329-0.297-0.032-0.703 0.363-0.468 4.512 2.617 10.079 4.204 15.836 4.204 3.885 0 8.152-0.809 12.080-2.469 0.585-0.267 1.085 0.383 0.511 0.809zM30.389 19.948c-0.448-0.573-2.96-0.276-4.099-0.137-0.34 0.043-0.393-0.256-0.084-0.48 2-1.404 5.289-1 5.672-0.532 0.383 0.48-0.107 3.768-1.98 5.343-0.287 0.245-0.564 0.117-0.436-0.201 0.427-1.053 1.373-3.427 0.927-3.992z"></path>
</symbol>
<symbol id="icon-digg" viewBox="0 0 32 32">
<path d="M23.68 10.88v10.88h5.12v1.28h-5.12v2.56h8.32v-14.72zM14.080 10.88v10.88h5.12v1.28h-5.12v2.56h8.32v-14.72zM5.12 6.4v4.48h-5.12v10.88h8.32v-15.36zM12.8 10.88h-3.2v10.88h3.2zM28.8 19.2h-1.92v-5.76h1.92zM5.12 19.2h-1.92v-5.76h1.92zM19.2 19.2h-1.92v-5.76h1.92zM12.8 6.4h-3.2v3.2h3.2z"></path>
</symbol>
<symbol id="icon-evry" viewBox="0 0 32 32">
<path fill="#063a54" style="fill: var(--color1, #063a54)" d="M0.591 17.225c0.136 0.34 0.151 0.568 0.096 0.923-0.041 0.269-0.091 0.539-0.144 0.807-0.047 0.232-0.156 0.733 0.004 0.925 0.156 0.185 0.467 0.175 0.829 0.131 0.403-0.049 2.413-0.456 4.529-1.329 0.287-0.124 0.58-0.273 0.829-0.46 0.575-0.432 0.667-1.34 0.667-1.34 0.015-0.173 0.012-0.421-0.219-0.551-0.168-0.093-0.401-0.035-0.749 0.057-0.577 0.155-2.003 0.692-2.497 0.837-0.2 0.059-0.596 0.152-0.748-0.036-0.253-0.312 0.109-1.292 0.327-1.837s0.559-0.984 1.607-1.28c0.385-0.109 1.016-0.305 1.272-0.391 0.281-0.095 0.652-0.276 0.809-0.9 0.18-0.712-0.371-0.821-0.873-0.957-0.719-0.196-1.171-0.22-0.855-0.905 0.129-0.28 0.249-0.404 0.529-0.477 0.285-0.075 2.705-0.451 3.668-0.623 0.54-0.096 0.723-0.381 0.948-0.841 0.487-0.995-0.124-1.059-0.616-1.015-1.115 0.101-2.904 0.42-3.671 0.529-0.408 0.059-0.136-0.627-0.613-0.659-0.939-0.065-1.736 0.324-2.055 0.567-0.301 0.229-0.445 0.937-0.445 0.937l-0.929 3.157c-0.080 0.364-0.195 0.724-0.457 0.879-0.639 0.377-1.943 0.403-1.827 1.787 0 0 0.025 0.68 0.584 2.065zM9.015 11.327c0.372-0.063 0.872-0.153 1.008 0.781 0.041 0.283 0.043 3.548 0.043 3.548s0.359-0.336 1.459-2.035c0.835-1.287 1.756-2.948 2.103-3.531 0.203-0.341 0.577-0.696 1.224-0.22 0.721 0.531 0.737 0.913 0.42 1.457-0.325 0.559-1.2 1.981-2.436 3.696-1.123 1.557-1.66 2.175-2.132 2.688s-1.101 1.107-1.759 1.016c-0.872-0.121-0.805-1.597-0.84-2.020s-0.205-3.776-0.088-4.559c0.045-0.304 0.033-0.661 0.999-0.823zM20.808 11.413c0.403 0.215-0.060 1.14-0.835 1.703-0.499 0.363-1.352 0.905-2.229 0.905 0.391-0.659 0.84-1.227 1.354-1.729l0.002-0.002c0.627-0.615 1.357-1.065 1.708-0.877zM31.701 11.209c0.388-0.497 0.465-0.795-0.177-1.415-0.577-0.556-0.964-0.228-1.245 0.060-0.047 0.056-1.355 1.335-2.732 2.893-1.072 1.213-1.999 2.341-1.999 2.341s-0.033-0.76 0.083-1.715c0.065-0.544 0.248-1.601 0.301-1.937 0.272-1.699-0.791-1.767-1.187-1.791-0.416-0.025-0.615 0.193-0.739 0.711-0.113 0.475-0.733 3.081-0.487 5.767 0.044 0.484 0.14 0.983 0.149 1.015l-0.251 0.343c-2.332-0.647-3.928-2.219-3.928-2.219s0.765-0.22 1.605-0.724c0.668-0.4 1.953-1.391 1.817-3.137-0.116-1.483-1.695-2.16-2.276-2.039-0.529 0.111-1.455 0.744-2.329 1.52-0.059-0.405-0.069-0.852-0.491-0.901-0.309-0.036-0.668 0.109-0.928 0.243-0.286 0.138-0.515 0.355-0.664 0.623l-0.004 0.008-0.981 2.22c-0.032 0.079-0.096 0.096-0.147 0.107-0.525 0.12-0.695 0.495-0.732 0.599 0 0-0.22 0.463 0.168 0.881-0.195 0.513-0.711 1.709-0.711 1.709-0.64 1.468-0.599 1.977-0.369 2.289 0.116 0.159 0.524 0.388 1.016 0.468 0.371 0.061 0.655-0.159 0.964-0.643 0.457-0.716 1.376-2.604 1.376-2.604s1.827 1.965 5.495 3.257c0 0-1.94 2.631-2.22 4.085 0 0-0.144 0.953 1.163 0.951 0.328 0 0.823-0.077 1.181-0.295 0.143-0.081 0.249-0.213 0.296-0.37l0.001-0.004c0.005-0.020 0.008-0.042 0.008-0.065 0-0.051-0.013-0.099-0.036-0.14l0.001 0.001c-0.036-0.063-0.092-0.097-0.135-0.139-0.067-0.065-0.057-0.151-0.021-0.249 0.719-2.059 3.643-5.559 4.263-6.317 1.644-2.009 4.683-5.139 4.901-5.387z"></path>
</symbol>
<symbol id="icon-synology" viewBox="0 0 32 32">
<path fill="#b6b5b6" style="fill: var(--color2, #b6b5b6)" d="M23.86 15.903c0.002-0.749 0.196-1.451 0.536-2.062l-0.011 0.022-0.011 0.023c0.329-0.627 0.819-1.131 1.416-1.468l0.018-0.009 0.019-0.009c0.583-0.321 1.277-0.509 2.015-0.509 0.005 0 0.011 0 0.016 0h0.062q1.795 0 2.933 1.161t1.147 2.937c0 1.193-0.387 2.18-1.156 2.968s-1.741 1.181-2.911 1.181c-0.755 0-1.467-0.183-2.095-0.505l0.025 0.012c-0.636-0.315-1.146-0.804-1.478-1.405l-0.009-0.017-0.009-0.017q-0.507-0.944-0.508-2.301zM25.984 16.013c0 0.788 0.184 1.391 0.56 1.799 0.336 0.388 0.829 0.632 1.378 0.632 0.549 0 1.041-0.243 1.374-0.627l0.002-0.002 0.001-0.003c0.367-0.409 0.551-1.019 0.551-1.809s-0.184-1.377-0.551-1.789c-0.337-0.385-0.829-0.627-1.378-0.627s-1.040 0.241-1.375 0.623l-0.002 0.002-0.001 0.003c-0.375 0.408-0.56 1.011-0.56 1.799zM23.848 19.935h-2.075v-4.020c0-0.847-0.043-1.392-0.135-1.645-0.084-0.24-0.236-0.439-0.434-0.578l-0.008-0.005c-0.194-0.13-0.433-0.208-0.691-0.208-0.001 0-0.003 0-0.004 0h-0.050c-0.36 0-0.695 0.112-0.969 0.304l0.005-0.004c-0.274 0.182-0.482 0.447-0.589 0.758l-0.003 0.010-0.003 0.011c-0.111 0.331-0.161 0.928-0.161 1.812v3.564h-2.065v-7.897h1.919v1.156c0.691-0.875 1.556-1.307 2.603-1.307h0.028c0.447 0 0.873 0.089 1.261 0.252l-0.021-0.008c0.348 0.14 0.64 0.357 0.864 0.633l0.003 0.004c0.188 0.247 0.329 0.539 0.405 0.857l0.003 0.016c0.076 0.371 0.119 0.796 0.119 1.232l-0.003 0.18v-0.009zM8.551 12.037h2.205l1.883 5.605 1.835-5.605h2.148l-2.756 7.591-0.507 1.384c-0.153 0.412-0.333 0.767-0.546 1.098l0.013-0.022 0.013-0.023c-0.152 0.233-0.339 0.429-0.556 0.586l-0.006 0.004-0.007 0.004c-0.227 0.151-0.489 0.271-0.771 0.347l-0.019 0.004c-0.309 0.085-0.665 0.133-1.032 0.133h-0.032c-0.431-0.002-0.85-0.052-1.252-0.147l0.037 0.007 0.037 0.007-0.172-1.639c0.264 0.061 0.568 0.099 0.879 0.103h0.003c0.48 0 0.837-0.141 1.067-0.424 0.235-0.304 0.417-0.664 0.522-1.055l0.005-0.021 0.005-0.021zM0 16.387l2.123-0.199q0.196 1.069 0.781 1.575t1.589 0.5c0.704 0 1.236-0.151 1.596-0.447s0.533-0.648 0.533-1.043v-0.032c0-0.001 0-0.002 0-0.002 0-0.239-0.084-0.459-0.224-0.631l0.001 0.002 0.001 0.001c-0.151-0.176-0.412-0.336-0.787-0.463-0.257-0.099-0.841-0.255-1.749-0.487-1.176-0.288-1.995-0.648-2.467-1.072-0.613-0.528-0.999-1.305-0.999-2.173 0-0.001 0-0.001 0-0.002v0-0.037c0-0.575 0.176-1.108 0.477-1.551l-0.007 0.009c0.327-0.488 0.782-0.867 1.318-1.094l0.019-0.007 0.020-0.007c0.589-0.245 1.297-0.375 2.136-0.375q2.039 0 3.072 0.901c0.688 0.609 1.047 1.409 1.081 2.412l-2.199 0.073c-0.097-0.551-0.292-0.952-0.603-1.199s-0.772-0.368-1.379-0.368c-0.635 0-1.133 0.131-1.491 0.397-0.211 0.143-0.348 0.382-0.348 0.653 0 0 0 0 0 0v-0 0.016c0 0.268 0.127 0.505 0.323 0.657l0.001 0.001c0.273 0.239 0.945 0.48 2.009 0.728s1.851 0.516 2.359 0.787c0.499 0.261 0.904 0.64 1.191 1.1l0.008 0.013c0.285 0.46 0.435 1.048 0.435 1.74 0 0.652-0.195 1.259-0.528 1.767l0.008-0.012c-0.352 0.544-0.853 0.965-1.445 1.211l-0.021 0.008c-0.633 0.259-1.42 0.397-2.363 0.397-1.372 0-2.425-0.321-3.164-0.963s-1.172-1.569-1.311-2.788z"></path>
</symbol>
<symbol id="icon-layers" viewBox="0 0 20 20">
<path d="M9.248 11.601c0.45 0.313 1.050 0.313 1.5 0l9.088-5.281c0.236-0.164 0.21-0.518-0.048-0.646l-9.205-3.537c-0.368-0.183-0.802-0.183-1.17 0l-9.205 3.537c-0.258 0.127-0.284 0.482-0.048 0.646l9.088 5.281zM19.788 10.811l-2.486-1.233-5.725 3.327c-0.469 0.309-1.014 0.471-1.579 0.471s-1.11-0.163-1.579-0.471l-5.721-3.329-2.49 1.234c-0.258 0.128-0.284 0.482-0.048 0.646l9.088 6.309c0.45 0.313 1.050 0.313 1.5 0l9.088-6.309c0.236-0.163 0.21-0.517-0.048-0.645z"></path>
</symbol>
<symbol id="icon-heart" viewBox="0 0 20 20">
<path d="M17.19 4.155c-1.672-1.534-4.383-1.534-6.055 0l-1.135 1.042-1.136-1.042c-1.672-1.534-4.382-1.534-6.054 0-1.881 1.727-1.881 4.52 0 6.246l7.19 6.599 7.19-6.599c1.88-1.726 1.88-4.52 0-6.246z"></path>
</symbol>
<symbol id="icon-key" viewBox="0 0 20 20">
<path d="M17.691 4.725c-0.503-2.977-3.22-4.967-6.069-4.441s-5.256 2.816-4.753 5.795c0.107 0.641 0.408 1.644 0.763 2.365l-5.175 7.723c-0.191 0.285-0.299 0.799-0.242 1.141l0.333 1.971c0.058 0.342 0.372 0.572 0.7 0.514l1.516-0.281c0.328-0.059 0.744-0.348 0.924-0.639l2.047-3.311 0.018-0.022 1.386-0.256 2.39-3.879c0.785 0.139 1.912 0.092 2.578-0.031 2.848-0.526 4.087-3.67 3.584-6.649zM15.166 6.252c-0.784 1.17-1.584 0.346-2.703-0.475-1.119-0.818-2.135-1.322-1.352-2.492s2.326-1.455 3.447-0.635c1.12 0.819 1.391 2.432 0.608 3.602z"></path>
</symbol>
<symbol id="icon-location-pin" viewBox="0 0 20 20">
<path d="M10 2.009c-2.762 0-5 2.229-5 4.99 0 4.774 5 11 5 11s5-6.227 5-11c0-2.76-2.238-4.99-5-4.99zM10 9.76c-1.492 0-2.7-1.209-2.7-2.7s1.208-2.7 2.7-2.7c1.49 0 2.699 1.209 2.699 2.7s-1.209 2.7-2.699 2.7z"></path>
</symbol>
<symbol id="icon-user" viewBox="0 0 20 20">
<path d="M7.725 2.146c-1.016 0.756-1.289 1.953-1.239 2.59 0.064 0.779 0.222 1.793 0.222 1.793s-0.313 0.17-0.313 0.854c0.109 1.717 0.683 0.976 0.801 1.729 0.284 1.814 0.933 1.491 0.933 2.481 0 1.649-0.68 2.42-2.803 3.334-2.13 0.918-4.326 2.073-4.326 4.073v1h18v-1c0-2-2.197-3.155-4.328-4.072-2.123-0.914-2.801-1.684-2.801-3.334 0-0.99 0.647-0.667 0.932-2.481 0.119-0.753 0.692-0.012 0.803-1.729 0-0.684-0.314-0.854-0.314-0.854s0.158-1.014 0.221-1.793c0.065-0.817-0.398-2.561-2.3-3.096-0.333-0.34-0.558-0.881 0.466-1.424-2.24-0.105-2.761 1.067-3.954 1.929z"></path>
</symbol>
</defs>
</svg>
